<svg width="137" height="36" viewBox="0 0 137 36" fill="none" xmlns="http://www.w3.org/2000/svg">
<g clip-path="url(#clip0_1659_17312)">
<path d="M136.977 0.0457153H0V36H136.977V0.0457153Z" fill="#D40000"/>
<path d="M5.45605 30.5143V27.4057L19.0853 8.89143H5.45605V5.48572H23.7425V8.59429L10.1133 27.1086H23.7425V30.5143H5.45605Z" fill="white"/>
<path d="M26.14 30.5143L35.6371 5.48572H39.5638L49.0609 30.5143H44.8374L42.6229 24.6629H32.304L30.0895 30.5143H26.1172H26.14ZM33.5824 21.2343H41.3217L37.4635 10.4457L33.5824 21.2343Z" fill="white"/>
<path d="M52.4395 30.5143V5.50854H62.005C64.8815 5.50854 66.9819 6.12569 68.3288 7.35997C69.6757 8.5714 70.3606 10.1943 70.3606 12.1828C70.3606 14.1714 70.0182 14.5828 69.3333 15.4971C68.6484 16.4114 67.7352 17.0514 66.6166 17.4628C68.1005 17.8057 69.2648 18.4685 70.1095 19.4971C70.9999 20.5028 71.4336 21.8057 71.4336 23.4285C71.4336 25.0514 71.1368 26.0343 70.5433 27.1085C69.9497 28.16 68.9909 28.9828 67.6896 29.6C66.4111 30.1943 64.7217 30.4914 62.6671 30.4914H52.4395V30.5143ZM56.3661 27.1314H62.3703C64.3565 27.1314 65.6806 26.7885 66.4111 26.1257C67.1417 25.4628 67.5069 24.5028 67.5069 23.2228C67.5069 21.9428 67.1417 20.9828 66.4111 20.2971C65.6806 19.5885 64.3108 19.2228 62.3475 19.2228H56.389V27.1314H56.3661ZM56.3661 16.0914H61.6854C63.4889 16.0914 64.7217 15.7485 65.4066 15.0857C66.0915 14.4228 66.434 13.5314 66.434 12.4343C66.434 11.3371 66.0915 10.4457 65.4066 9.82855C64.7446 9.2114 63.5118 8.8914 61.6854 8.8914H56.3661V16.0685V16.0914Z" fill="white"/>
<path d="M76.228 30.5143V5.50854H85.7936C88.6701 5.50854 90.7704 6.12569 92.1174 7.35997C93.4643 8.5714 94.1492 10.1943 94.1492 12.1828C94.1492 14.1714 93.8068 14.5828 93.1219 15.4971C92.437 16.4114 91.5238 17.0514 90.4052 17.4628C91.8891 17.8057 93.0534 18.4685 93.8981 19.4971C94.7884 20.5028 95.2222 21.8057 95.2222 23.4285C95.2222 25.0514 94.9254 26.0343 94.3318 27.1085C93.7383 28.16 92.7794 28.9828 91.4782 29.6C90.1997 30.1943 88.5103 30.4914 86.4557 30.4914H76.228V30.5143ZM80.1547 27.1314H86.1589C88.145 27.1314 89.4692 26.7885 90.1997 26.1257C90.9302 25.4628 91.2955 24.5028 91.2955 23.2228C91.2955 21.9428 90.9302 20.9828 90.1997 20.2971C89.4692 19.5885 88.0994 19.2228 86.136 19.2228H80.1775V27.1314H80.1547ZM80.1547 16.0914H85.474C87.2775 16.0914 88.5103 15.7485 89.1952 15.0857C89.8801 14.4228 90.2225 13.5314 90.2225 12.4343C90.2225 11.3371 89.8801 10.4457 89.1952 9.82855C88.5331 9.2114 87.3003 8.8914 85.474 8.8914H80.1547V16.0685V16.0914Z" fill="white"/>
<path d="M100.838 30.5143V5.50854H104.765V30.5371H100.838V30.5143Z" fill="white"/>
<path d="M109.445 30.5143L118.12 17.5771L109.81 5.48572H114.193L120.517 14.6057L126.909 5.48572H131.156L122.869 17.4857L131.498 30.4914H127.046L120.449 20.3657L113.782 30.4914H109.445V30.5143Z" fill="white"/>
</g>
<defs>
<clipPath id="clip0_1659_17312">
<rect width="137" height="36" fill="white"/>
</clipPath>
</defs>
</svg>
